<?xml version="1.0" encoding="UTF-8" standalone="no"?>
<svg
   xmlns:dc="http://purl.org/dc/elements/1.1/"
   xmlns:cc="http://creativecommons.org/ns#"
   xmlns:rdf="http://www.w3.org/1999/02/22-rdf-syntax-ns#"
   xmlns:svg="http://www.w3.org/2000/svg"
   xmlns="http://www.w3.org/2000/svg"
   xmlns:sodipodi="http://sodipodi.sourceforge.net/DTD/sodipodi-0.dtd"
   xmlns:inkscape="http://www.inkscape.org/namespaces/inkscape"
   id="svg32847"
   sodipodi:docname="scissors.svg"
   viewBox="0 0 420.67 343.32"
   version="1.1"
   inkscape:version="1.0.1 (3bc2e813f5, 2020-09-07)">
  <defs
     id="defs34">
    <clipPath
       clipPathUnits="userSpaceOnUse"
       id="clipPath861">
      <rect
         style="opacity:0.996;fill:#000000;stroke:#000000;stroke-width:3.12812;stroke-opacity:0"
         id="rect863"
         width="186.26982"
         height="136.60843"
         x="169.15752"
         y="396.53922" />
    </clipPath>
  </defs>
  <sodipodi:namedview
     id="namedview35"
     bordercolor="#666666"
     inkscape:pageshadow="2"
     guidetolerance="10"
     pagecolor="#ffffff"
     gridtolerance="10"
     inkscape:window-maximized="1"
     inkscape:zoom="1.2685914"
     objecttolerance="10"
     borderopacity="1"
     inkscape:current-layer="imagebot_10"
     inkscape:cx="194.80117"
     inkscape:cy="162.34224"
     inkscape:window-y="40"
     inkscape:window-x="-8"
     inkscape:window-width="1280"
     showgrid="false"
     inkscape:pageopacity="0"
     inkscape:window-height="961"
     inkscape:document-rotation="0"
     showguides="false" />
  <title
     id="title32935">Rock-Paper-Scissors</title>
  <g
     id="layer1"
     transform="matrix(2.2605852,0,0,2.5144664,-382.81025,-997.95765)"
     clip-path="url(#clipPath861)">
    <g
       id="imagebot_10"
       transform="matrix(-0.46644,1.1393,-1.1393,-0.46644,1440.2,856.09)">
      <path
         id="imagebot_18"
         style="fill:#ffffff;stroke:#fc2d11;stroke-width:4.0614;stroke-linecap:round;stroke-linejoin:round;stroke-opacity:1"
         inkscape:connector-curvature="0"
         d="m 89.471,1065.9 c 3.727,6.1 -0.484,10 -6.16,12.9 -8.03,4.1 -27.898,2.1 -34.7,-2 -6.243,-3.8 -9.013,-9.3 -6.041,-14.2" />
      <path
         id="imagebot_17"
         style="fill:#ffffff;stroke:#fc2d11;stroke-width:4.0614;stroke-linecap:round;stroke-linejoin:round;stroke-opacity:1"
         inkscape:connector-curvature="0"
         d="m 21.354,1021 c -0.857,15.7 13.893,40.3 31.364,46.1 9.022,2.9 29.326,3.8 36.494,-1.5 12.278,-9 18.478,-20.7 21.288,-35.1 0.99,-5.1 1.24,-10.9 0.95,-15.7 -1.2892,-17.564 -14.828,-27.886 -20.606,-31.93 -0.182,-11.45 0.977,-25.25 2.816,-38.22 2.751,-19.4 -24.341,-14.51 -26.732,3.69 -1.119,8.52 -3.056,15.51 -5.109,34.59 -3.145,-10.28 -8.431,-25.04 -10.205,-35.24 -2.925,-16.83 -27.057,-6.74 -23.048,13.76 2.731,13.96 7.07,24.24 9.739,37.54 -2.806,2.21 -16.056,5.71 -16.951,22.01 z" />
      <path
         id="imagebot_16"
         style="fill:#fc2d11;stroke-width:5.781;fill-opacity:1"
         inkscape:connector-curvature="0"
         d="m 59.576,982.54 c 3.037,12.66 7.491,18.46 9.149,21.46 -2.12,-7.92 -2.868,-9.87 -4.494,-18.45 -0.275,-1.46 -0.356,-3.2 -0.116,-5.33 z" />
      <path
         id="imagebot_15"
         style="fill:#fc2d11;stroke-width:5.781;fill-opacity:1"
         inkscape:connector-curvature="0"
         d="m 88.815,982.97 c 0.126,7.64 2.111,16.81 4.971,22.53 -0.30609,-8.2722 -0.55595,-14.803 -1.0313,-22.676 -0.021,0 -1.961,0.15 -3.94,0.15 z" />
      <path
         id="imagebot_14"
         style="fill:none;stroke:#fc2d11;stroke-width:4.0614;stroke-linecap:round;stroke-linejoin:round;stroke-opacity:1"
         inkscape:connector-curvature="0"
         d="m 79.642,1058.3 c 4.036,-9.7 3.976,-12.5 5.195,-17.4" />
      <path
         id="imagebot_13"
         style="fill:none;stroke:#fc2d11;stroke-width:4.0614;stroke-linecap:round;stroke-linejoin:round;stroke-opacity:1"
         inkscape:connector-curvature="0"
         d="m 70.26,1059 c 1.693,-11.5 1.425,-17.2 1.856,-24.9" />
      <path
         id="imagebot_12"
         style="fill:none;stroke:#fc2d11;stroke-width:4.0614;stroke-linecap:round;stroke-linejoin:round;stroke-opacity:1"
         inkscape:connector-curvature="0"
         d="m 59.041,1059.5 c 0.098,-8 -0.598,-11.8 -1.048,-16.8" />
      <path
         id="imagebot_11"
         style="fill:#fc2d11;stroke-width:5.781;fill-opacity:1"
         inkscape:connector-curvature="0"
         d="m 36.025,998.02 c 3.892,16.78 -1.201,23.38 -4.587,31.88 2.808849,-4.8043 6.169086,-7.8798 8.104694,-12.8732 1.609868,-4.153 2.234258,-9.6326 0.736306,-18.5368 z"
         sodipodi:nodetypes="ccscc" />
    </g>
    <g
       id="g5439"
       transform="matrix(0.62977,0.77678,-0.77678,0.62977,1980.2,-124.31)">
      <g
         id="g3915-6-1-6-3-8-9-4"
         transform="matrix(1.2311,0,0,1.2311,-513.75,545.62)">
        <path
           id="path3894-6-1-0-5-5-2-9"
           style="fill:#ffffff;stroke:#000000;stroke-width:4.0614;stroke-linecap:round;stroke-linejoin:round"
           inkscape:connector-curvature="0"
           d="m 89.471,1065.9 c 3.7268,6.1263 -0.48379,10.049 -6.16,12.947 -8.0302,4.0988 -27.898,2.1019 -34.7,-2.0136 -6.2427,-3.777 -9.0128,-9.3495 -6.0403,-14.184" />
        <path
           id="path3112-2-8-6-8-2-9-8"
           style="fill:#ffffff;stroke:#000000;stroke-width:4.0614;stroke-linecap:round;stroke-linejoin:round"
           inkscape:connector-curvature="0"
           d="m -3.604,1025.6 c -4.0486,8.0173 9.817,12.99 25.017,15.798 5.9022,1.0905 17.507,20.951 31.305,25.697 8.9767,3.088 29.326,3.8464 36.494,-1.431 12.273,-9.0365 18.48,-20.686 21.285,-35.088 0.99446,-5.1051 1.2473,-10.936 0.95737,-15.702 -0.95222,-15.651 12.951,-53.666 11.882,-57.677 -2.9683,-11.145 -15.873,-4.6143 -18.563,2.5506 -1.303,3.4704 -13.856,27.808 -13.93,23.149 -0.18216,-11.445 0.9768,-25.243 2.8156,-38.21 2.7516,-19.404 -24.341,-14.513 -26.731,3.6823 -1.1198,8.5239 -3.0565,15.509 -5.109,34.59 -3.1459,-10.276 -8.4312,-25.036 -10.205,-35.24 -2.9255,-16.826 -27.057,-6.7396 -23.048,13.758 2.7304,13.959 10.401,38.572 9.2013,62.827 -9.4248,-7.8585 -29.16,-22.888 -41.372,1.2939 z" />
        <path
           id="path3882-6-1-33-9-9-7-9"
           style="color:#000000;text-indent:0;text-transform:none;fill:#000000"
           inkscape:connector-curvature="0"
           d="m 59.576,982.54 c 3.0369,12.661 7.4917,18.465 9.1495,21.42 -2.1204,-7.8868 -2.8679,-9.8306 -4.494,-18.415 -0.2757,-1.4554 -0.35672,-3.1981 -0.11641,-5.3248 z" />
        <path
           id="path3884-6-1-2-9-6-6-0"
           style="color:#000000;text-indent:0;text-transform:none;fill:#000000"
           inkscape:connector-curvature="0"
           d="m 88.815,982.97 c 0.12674,7.633 2.1115,16.807 4.9714,22.534 -0.13108,-4.1659 -0.41858,-11.323 -0.74166,-17.651 -0.08762,-1.7164 0.25366,-3.2704 1.6609,-5.2711 -1.9266,0.5414 -3.9113,0.38456 -5.8906,0.3884 z" />
        <path
           id="path3886-8-5-4-3-7-0-8"
           style="fill:none;stroke:#000000;stroke-width:4.0614;stroke-linecap:round;stroke-linejoin:round"
           inkscape:connector-curvature="0"
           d="m 79.642,1058.3 c 4.0369,-9.6783 3.976,-12.465 5.1951,-17.405" />
        <path
           id="path3888-4-4-9-8-4-7-4"
           style="fill:none;stroke:#000000;stroke-width:4.0614;stroke-linecap:round;stroke-linejoin:round"
           inkscape:connector-curvature="0"
           d="m 70.26,1059 c 1.6922,-11.475 1.4242,-17.152 1.8555,-24.898" />
        <path
           id="path3890-1-8-5-1-8-9-7"
           style="fill:none;stroke:#000000;stroke-width:4.0614;stroke-linecap:round;stroke-linejoin:round"
           inkscape:connector-curvature="0"
           d="m 59.041,1059.5 c 0.0971,-7.9806 -0.59887,-11.754 -1.049,-16.831" />
      </g>
    </g>
    <g
       id="g32290"
       transform="matrix(0.19511,1.2155,1.2155,-0.19511,-740.71,627.61)">
      <path
         id="path32292"
         style="fill:#ffffff;stroke:#000000;stroke-width:4.0614;stroke-linecap:round;stroke-linejoin:round"
         inkscape:connector-curvature="0"
         d="m 89.471,1065.9 c 3.727,6.1 -0.484,10 -6.16,12.9 -8.03,4.1 -27.898,2.1 -34.7,-2 -6.243,-3.8 -9.013,-9.3 -6.041,-14.2" />
      <path
         id="path32294"
         style="fill:#ffffff;stroke:#000000;stroke-width:4.0614;stroke-linecap:round;stroke-linejoin:round"
         inkscape:connector-curvature="0"
         d="m 21.354,1021 c -0.857,15.7 13.893,40.3 31.364,46.1 9.022,2.9 29.326,3.8 36.494,-1.5 12.278,-9 18.478,-20.7 21.288,-35.1 0.99,-5.1 1.24,-10.9 0.95,-15.7 -1.0243,-19.615 -7.2183,-34.207 -20.606,-31.93 -4.0887,-16.074 -28.906,-12.222 -29.025,0.06 -12.665,-14.242 -31.088,-0.95682 -23.514,16.06 -2.806,2.21 -16.056,5.71 -16.951,22.01 z" />
      <path
         id="path32296"
         style="fill:#000000;stroke-width:5.781"
         inkscape:connector-curvature="0"
         d="m 63.9,983.51 c 3.9293,12.412 2.3553,17.577 2.4826,21.002 -2.2696,-7.8785 -2.6348,-9.9348 -5.6681,-18.124 -0.5176,-1.3926 -1.1975,-2.8019 -2.7174,-4.358 l 6.1176,-0.90089 c 0.04218,-0.30077 -0.35752,1.4647 -0.21472,2.3804 z" />
      <path
         id="path32298"
         style="fill:#000000;stroke-width:5.781"
         inkscape:connector-curvature="0"
         d="m 92.465,981.32 c 1.5115,7.49 2.5208,16.87 0.95082,23.069 -0.77062,-4.1308 -3.4725,-14.678 -4.5081,-20.921 -0.01285,0.002 0.01246,0.0116 3.5573,-2.1484 z" />
      <path
         id="path32300"
         style="fill:none;stroke:#000000;stroke-width:4.0614;stroke-linecap:round;stroke-linejoin:round"
         inkscape:connector-curvature="0"
         d="m 79.642,1058.3 c 4.036,-9.7 3.976,-12.5 5.195,-17.4" />
      <path
         id="path32302"
         style="fill:none;stroke:#000000;stroke-width:4.0614;stroke-linecap:round;stroke-linejoin:round"
         inkscape:connector-curvature="0"
         d="m 70.26,1059 c 1.693,-11.5 1.425,-17.2 1.856,-24.9" />
      <path
         id="path32304"
         style="fill:none;stroke:#000000;stroke-width:4.0614;stroke-linecap:round;stroke-linejoin:round"
         inkscape:connector-curvature="0"
         d="m 59.041,1059.5 c 0.098,-8 -0.598,-11.8 -1.048,-16.8" />
      <path
         id="path32306"
         style="fill:#000000;stroke-width:5.781"
         inkscape:connector-curvature="0"
         d="m 36.025,998.02 c 3.892,16.78 -1.201,23.38 -4.587,31.88 5.145,-8.8 12.14,-11.8 8.841,-31.41 z" />
    </g>
  </g>
  <metadata
     id="metadata33">
    <rdf:RDF>
      <cc:Work>
        <dc:format>image/svg+xml</dc:format>
        <dc:type
           rdf:resource="http://purl.org/dc/dcmitype/StillImage" />
        <cc:license
           rdf:resource="http://creativecommons.org/licenses/publicdomain/" />
        <dc:publisher>
          <cc:Agent
             rdf:about="http://openclipart.org/">
            <dc:title>Openclipart</dc:title>
          </cc:Agent>
        </dc:publisher>
        <dc:title>Rock-Paper-Scissors</dc:title>
      </cc:Work>
      <cc:License
         rdf:about="http://creativecommons.org/licenses/publicdomain/">
        <cc:permits
           rdf:resource="http://creativecommons.org/ns#Reproduction" />
        <cc:permits
           rdf:resource="http://creativecommons.org/ns#Distribution" />
        <cc:permits
           rdf:resource="http://creativecommons.org/ns#DerivativeWorks" />
      </cc:License>
    </rdf:RDF>
  </metadata>
</svg>
